<svg width="24" height="24" viewBox="0 0 24 24" fill="none" xmlns="http://www.w3.org/2000/svg">
<path d="M12 24C18.6274 24 24 18.6275 24 12C24 5.37258 18.6274 0 12 0C5.37258 0 0 5.37258 0 12C0 18.6275 5.37258 24 12 24Z" fill="#F4BECF"/>
<path d="M12 5.91602C9.516 5.91602 7.5 7.93202 7.5 10.416C7.5 12.852 9.408 14.832 11.94 14.904H12.048H12.132H12.156C14.58 14.82 16.488 12.852 16.5 10.416C16.5 7.93202 14.484 5.91602 12 5.91602Z" fill="white"/>
<path d="M20.1372 20.8202C18.0012 22.7882 15.1452 24.0002 12.0012 24.0002C8.85723 24.0002 6.00123 22.7882 3.86523 20.8202C4.15323 19.7282 4.93323 18.7322 6.07323 17.9642C9.34923 15.7802 14.6772 15.7802 17.9292 17.9642C19.0812 18.7322 19.8492 19.7282 20.1372 20.8202Z" fill="white"/>
</svg>
